# xmcd
#
# Track frame offsets:
#	150
#	15228
#	29295
#
# Disc length: 575 seconds
#
# Revision: 0
# Processed by: cddbd v1.5.2PL0 Copyright (c) Steve Scherf et al.
# Submitted via: audiograbber 1.83.01
#
DISCID=13023d03
DTITLE=Dave Dudley - Deutschland Autobahn MCD
DYEAR=1994
DGENRE=Country
TTITLE0=Deutschland Autobahn
TTITLE1=Morning Sun
TTITLE2=Think i'll him some roses
EXTD=
EXTT0=
EXTT1=
EXTT2=
PLAYORDER=
